<svg width="296" height="70" viewBox="0 0 296 70" fill="none" xmlns="http://www.w3.org/2000/svg">
<path d="M88.5415 16.4489H81.4393C81.3446 15.7197 81.1505 15.0616 80.8569 14.4744C80.5633 13.8873 80.1751 13.3854 79.6921 12.9688C79.2092 12.5521 78.6362 12.2348 77.9734 12.017C77.32 11.7898 76.5955 11.6761 75.8001 11.6761C74.3891 11.6761 73.1722 12.0218 72.1495 12.7131C71.1362 13.4044 70.355 14.4034 69.8058 15.7102C69.266 17.017 68.9961 18.5985 68.9961 20.4545C68.9961 22.3864 69.2707 24.0057 69.82 25.3125C70.3787 26.6098 71.1599 27.59 72.1637 28.2528C73.177 28.9062 74.3749 29.233 75.7575 29.233C76.534 29.233 77.2395 29.1335 77.8739 28.9347C78.5179 28.7358 79.0813 28.447 79.5643 28.0682C80.0567 27.6799 80.4592 27.2112 80.7717 26.6619C81.0936 26.1032 81.3162 25.4735 81.4393 24.7727L88.5415 24.8153C88.4184 26.1032 88.0444 27.3722 87.4194 28.6222C86.8039 29.8722 85.9563 31.0133 84.8768 32.0455C83.7972 33.0682 82.4809 33.8826 80.9279 34.4886C79.3844 35.0947 77.6135 35.3977 75.6154 35.3977C72.9828 35.3977 70.6249 34.8201 68.5415 33.6648C66.4677 32.5 64.8294 30.8049 63.6268 28.5795C62.4241 26.3542 61.8228 23.6458 61.8228 20.4545C61.8228 17.2538 62.4336 14.5407 63.6552 12.3153C64.8768 10.09 66.5292 8.39962 68.6126 7.24432C70.6959 6.08901 73.0302 5.51136 75.6154 5.51136C77.3768 5.51136 79.0056 5.75758 80.5018 6.25C81.998 6.73295 83.3143 7.44318 84.4506 8.38068C85.587 9.30871 86.5103 10.4498 87.2205 11.804C87.9308 13.1581 88.3711 14.7064 88.5415 16.4489ZM92.565 35V13.1818H112.267V35H105.69V18.4943H99.0565V35H92.565ZM122.817 35.3693C121.425 35.3693 120.189 35.1373 119.11 34.6733C118.04 34.1998 117.192 33.4896 116.567 32.5426C115.952 31.5862 115.644 30.3883 115.644 28.9489C115.644 27.7367 115.857 26.714 116.283 25.8807C116.709 25.0473 117.296 24.3703 118.044 23.8494C118.792 23.3286 119.654 22.9356 120.63 22.6705C121.605 22.3958 122.647 22.2112 123.755 22.1165C124.995 22.0028 125.994 21.8845 126.752 21.7614C127.509 21.6288 128.059 21.4441 128.4 21.2074C128.75 20.9612 128.925 20.6155 128.925 20.1705V20.0994C128.925 19.3703 128.674 18.8068 128.172 18.4091C127.67 18.0114 126.993 17.8125 126.141 17.8125C125.222 17.8125 124.484 18.0114 123.925 18.4091C123.366 18.8068 123.011 19.3561 122.86 20.0568L116.453 19.8295C116.643 18.5038 117.131 17.3201 117.917 16.2784C118.712 15.2273 119.801 14.4034 121.184 13.8068C122.576 13.2008 124.247 12.8977 126.198 12.8977C127.59 12.8977 128.873 13.0634 130.047 13.3949C131.221 13.7169 132.244 14.1903 133.115 14.8153C133.987 15.4309 134.659 16.1884 135.132 17.0881C135.615 17.9877 135.857 19.0152 135.857 20.1705V35H129.323V31.9602H129.152C128.764 32.6989 128.267 33.3239 127.661 33.8352C127.064 34.3466 126.359 34.7301 125.544 34.9858C124.739 35.2415 123.83 35.3693 122.817 35.3693ZM124.962 30.8239C125.71 30.8239 126.382 30.6723 126.979 30.3693C127.585 30.0663 128.068 29.6496 128.428 29.1193C128.788 28.5795 128.968 27.9545 128.968 27.2443V25.1705C128.769 25.2746 128.527 25.3693 128.243 25.4545C127.969 25.5398 127.666 25.6203 127.334 25.696C127.003 25.7718 126.662 25.8381 126.311 25.8949C125.961 25.9517 125.625 26.0038 125.303 26.0511C124.65 26.1553 124.091 26.3163 123.627 26.5341C123.172 26.7519 122.822 27.036 122.576 27.3864C122.339 27.7273 122.221 28.1345 122.221 28.608C122.221 29.3277 122.476 29.8769 122.988 30.2557C123.508 30.6345 124.167 30.8239 124.962 30.8239ZM150.289 35.4119C147.988 35.4119 146.013 34.9384 144.365 33.9915C142.727 33.0445 141.468 31.7282 140.587 30.0426C139.706 28.3475 139.266 26.3873 139.266 24.1619C139.266 21.9271 139.706 19.9669 140.587 18.2812C141.477 16.5862 142.741 15.2652 144.38 14.3182C146.027 13.3712 147.992 12.8977 150.275 12.8977C152.292 12.8977 154.048 13.2623 155.544 13.9915C157.05 14.7206 158.224 15.7528 159.067 17.0881C159.919 18.4138 160.369 19.9716 160.417 21.7614H153.925C153.792 20.6439 153.414 19.768 152.789 19.1335C152.173 18.4991 151.368 18.1818 150.374 18.1818C149.569 18.1818 148.864 18.4091 148.257 18.8636C147.651 19.3087 147.178 19.9716 146.837 20.8523C146.506 21.7235 146.34 22.803 146.34 24.0909C146.34 25.3788 146.506 26.4678 146.837 27.358C147.178 28.2386 147.651 28.9062 148.257 29.3608C148.864 29.8059 149.569 30.0284 150.374 30.0284C151.018 30.0284 151.586 29.8911 152.078 29.6165C152.58 29.3419 152.992 28.9394 153.314 28.4091C153.636 27.8693 153.84 27.2159 153.925 26.4489H160.417C160.35 28.2481 159.9 29.8201 159.067 31.1648C158.243 32.5095 157.083 33.5559 155.587 34.304C154.1 35.0426 152.334 35.4119 150.289 35.4119ZM170.548 26.0085L177.522 13.1818H184.199V35H177.622V22.1307L170.662 35H163.971V13.1818H170.548V26.0085ZM207.412 5.22727L209.287 9.81534C208.691 10.2794 208.037 10.6297 207.327 10.8665C206.626 11.1032 205.769 11.2642 204.756 11.3494C203.743 11.4347 202.464 11.482 200.921 11.4915C199.178 11.5009 197.767 11.7424 196.688 12.2159C195.608 12.6799 194.789 13.4422 194.23 14.5028C193.681 15.554 193.317 16.9555 193.137 18.7074H193.321C193.946 17.3911 194.837 16.3542 195.992 15.5966C197.147 14.839 198.639 14.4602 200.466 14.4602C202.37 14.4602 204.027 14.8722 205.438 15.696C206.849 16.5104 207.938 17.6752 208.705 19.1903C209.472 20.696 209.855 22.4858 209.855 24.5597C209.855 26.7566 209.415 28.6695 208.534 30.2983C207.654 31.9271 206.394 33.1866 204.756 34.0767C203.118 34.9669 201.158 35.4119 198.875 35.4119C196.593 35.4119 194.628 34.9479 192.98 34.0199C191.342 33.0919 190.078 31.7282 189.188 29.929C188.307 28.1203 187.867 25.8996 187.867 23.267V21.6761C187.867 16.2784 188.956 12.3059 191.134 9.75852C193.312 7.21117 196.494 5.92803 200.679 5.90909C201.73 5.89962 202.682 5.89962 203.534 5.90909C204.396 5.90909 205.149 5.86648 205.793 5.78125C206.437 5.68655 206.977 5.50189 207.412 5.22727ZM198.918 30.1705C199.713 30.1705 200.4 29.9574 200.978 29.5312C201.555 29.1051 202 28.4943 202.313 27.6989C202.625 26.9034 202.782 25.947 202.782 24.8295C202.782 23.7121 202.621 22.7604 202.299 21.9744C201.986 21.1884 201.541 20.5919 200.963 20.1847C200.386 19.768 199.699 19.5597 198.904 19.5597C198.298 19.5597 197.748 19.678 197.256 19.9148C196.764 20.142 196.347 20.483 196.006 20.9375C195.665 21.3826 195.405 21.9318 195.225 22.5852C195.045 23.2386 194.955 23.9867 194.955 24.8295C194.955 26.4962 195.305 27.803 196.006 28.75C196.707 29.697 197.677 30.1705 198.918 30.1705ZM223.687 35.4119C221.395 35.4119 219.426 34.9432 217.778 34.0057C216.14 33.0587 214.876 31.7424 213.985 30.0568C213.105 28.3617 212.664 26.3968 212.664 24.1619C212.664 21.9176 213.105 19.9527 213.985 18.267C214.876 16.572 216.14 15.2557 217.778 14.3182C219.426 13.3712 221.395 12.8977 223.687 12.8977C225.979 12.8977 227.944 13.3712 229.582 14.3182C231.23 15.2557 232.494 16.572 233.375 18.267C234.265 19.9527 234.71 21.9176 234.71 24.1619C234.71 26.3968 234.265 28.3617 233.375 30.0568C232.494 31.7424 231.23 33.0587 229.582 34.0057C227.944 34.9432 225.979 35.4119 223.687 35.4119ZM223.73 30.1705C224.563 30.1705 225.269 29.9148 225.846 29.4034C226.424 28.892 226.864 28.1818 227.167 27.2727C227.48 26.3636 227.636 25.3125 227.636 24.1193C227.636 22.9072 227.48 21.8466 227.167 20.9375C226.864 20.0284 226.424 19.3182 225.846 18.8068C225.269 18.2955 224.563 18.0398 223.73 18.0398C222.868 18.0398 222.139 18.2955 221.542 18.8068C220.955 19.3182 220.505 20.0284 220.193 20.9375C219.89 21.8466 219.738 22.9072 219.738 24.1193C219.738 25.3125 219.89 26.3636 220.193 27.2727C220.505 28.1818 220.955 28.892 221.542 29.4034C222.139 29.9148 222.868 30.1705 223.73 30.1705Z" fill="#343434"/>
<path d="M77.983 65.1591C77.2027 65.1591 76.5057 65.0246 75.892 64.7557C75.2822 64.4867 74.7992 64.1136 74.4432 63.6364C74.0909 63.1553 73.9015 62.5985 73.875 61.9659H75.6591C75.6818 62.3106 75.7973 62.6098 76.0057 62.8636C76.2178 63.1136 76.4943 63.3068 76.8352 63.4432C77.1761 63.5795 77.5549 63.6477 77.9716 63.6477C78.4299 63.6477 78.8352 63.5682 79.1875 63.4091C79.5436 63.25 79.822 63.0284 80.0227 62.7443C80.2235 62.4564 80.3239 62.125 80.3239 61.75C80.3239 61.3598 80.2235 61.017 80.0227 60.7216C79.8258 60.4223 79.536 60.1875 79.1534 60.017C78.7746 59.8466 78.3163 59.7614 77.7784 59.7614H76.7955V58.3295H77.7784C78.2102 58.3295 78.589 58.2519 78.9148 58.0966C79.2443 57.9413 79.5019 57.7254 79.6875 57.4489C79.8731 57.1686 79.9659 56.8409 79.9659 56.4659C79.9659 56.1061 79.8845 55.7936 79.7216 55.5284C79.5625 55.2595 79.3352 55.0492 79.0398 54.8977C78.7481 54.7462 78.4034 54.6705 78.0057 54.6705C77.6269 54.6705 77.2727 54.7405 76.9432 54.8807C76.6174 55.017 76.3523 55.214 76.1477 55.4716C75.9432 55.7254 75.8333 56.0303 75.8182 56.3864H74.1193C74.1383 55.7576 74.3239 55.2045 74.6761 54.7273C75.0322 54.25 75.5019 53.8769 76.0852 53.608C76.6686 53.339 77.3163 53.2045 78.0284 53.2045C78.7746 53.2045 79.4186 53.3504 79.9602 53.642C80.5057 53.9299 80.9261 54.3144 81.2216 54.7955C81.5208 55.2765 81.6686 55.803 81.6648 56.375C81.6686 57.0265 81.4867 57.5795 81.1193 58.0341C80.7557 58.4886 80.2708 58.7936 79.6648 58.9489V59.0398C80.4375 59.1572 81.036 59.464 81.4602 59.9602C81.8883 60.4564 82.1004 61.072 82.0966 61.8068C82.1004 62.447 81.9223 63.0208 81.5625 63.5284C81.2064 64.036 80.7197 64.4356 80.1023 64.7273C79.4848 65.0152 78.7784 65.1591 77.983 65.1591ZM86.8068 65.1932C86.2538 65.1932 85.7538 65.0909 85.3068 64.8864C84.8598 64.678 84.5057 64.3769 84.2443 63.983C83.9867 63.589 83.858 63.1061 83.858 62.5341C83.858 62.0417 83.9527 61.6364 84.142 61.3182C84.3314 61 84.5871 60.7481 84.9091 60.5625C85.2311 60.3769 85.5909 60.2367 85.9886 60.142C86.3864 60.0473 86.7917 59.9754 87.2045 59.9261C87.7273 59.8655 88.1515 59.8163 88.4773 59.7784C88.803 59.7367 89.0398 59.6705 89.1875 59.5795C89.3352 59.4886 89.4091 59.3409 89.4091 59.1364V59.0966C89.4091 58.6004 89.2689 58.2159 88.9886 57.9432C88.7121 57.6705 88.2992 57.5341 87.75 57.5341C87.178 57.5341 86.7273 57.661 86.3977 57.9148C86.072 58.1648 85.8466 58.4432 85.7216 58.75L84.125 58.3864C84.3144 57.8561 84.5909 57.428 84.9545 57.1023C85.322 56.7727 85.7443 56.5341 86.2216 56.3864C86.6989 56.2348 87.2008 56.1591 87.7273 56.1591C88.0758 56.1591 88.4451 56.2008 88.8352 56.2841C89.2292 56.3636 89.5966 56.5114 89.9375 56.7273C90.2822 56.9432 90.5644 57.2519 90.7841 57.6534C91.0038 58.0511 91.1136 58.5682 91.1136 59.2045V65H89.4545V63.8068H89.3864C89.2765 64.0265 89.1117 64.2424 88.892 64.4545C88.6723 64.6667 88.3902 64.8428 88.0455 64.983C87.7008 65.1231 87.2879 65.1932 86.8068 65.1932ZM87.1761 63.8295C87.6458 63.8295 88.0473 63.7367 88.3807 63.5511C88.7178 63.3655 88.9735 63.1231 89.1477 62.8239C89.3258 62.5208 89.4148 62.197 89.4148 61.8523V60.7273C89.3542 60.7879 89.2367 60.8447 89.0625 60.8977C88.892 60.947 88.697 60.9905 88.4773 61.0284C88.2576 61.0625 88.0436 61.0947 87.8352 61.125C87.6269 61.1515 87.4527 61.1742 87.3125 61.1932C86.983 61.2348 86.6818 61.3049 86.4091 61.4034C86.1402 61.5019 85.9242 61.6439 85.7614 61.8295C85.6023 62.0114 85.5227 62.2538 85.5227 62.5568C85.5227 62.9773 85.678 63.2955 85.9886 63.5114C86.2992 63.7235 86.6951 63.8295 87.1761 63.8295ZM98.581 65V57.7216H96.4901C95.9938 57.7216 95.6075 57.8371 95.331 58.0682C95.0545 58.2992 94.9162 58.6023 94.9162 58.9773C94.9162 59.3485 95.0431 59.6477 95.2969 59.875C95.5545 60.0985 95.9143 60.2102 96.3764 60.2102H99.0753V61.5852H96.3764C95.7325 61.5852 95.1757 61.4792 94.706 61.267C94.2401 61.0511 93.8802 60.7462 93.6264 60.3523C93.3764 59.9583 93.2514 59.4924 93.2514 58.9545C93.2514 58.4053 93.3802 57.9318 93.6378 57.5341C93.8991 57.1326 94.2723 56.822 94.7571 56.6023C95.2457 56.3826 95.8234 56.2727 96.4901 56.2727H100.178V65H98.581ZM92.8537 65L95.3139 60.5909H97.0526L94.5923 65H92.8537ZM102.439 65V56.2727H106.058C107.043 56.2727 107.823 56.483 108.399 56.9034C108.975 57.3201 109.263 57.8864 109.263 58.6023C109.263 59.1136 109.1 59.5189 108.774 59.8182C108.448 60.1174 108.017 60.3182 107.479 60.4205C107.869 60.4659 108.227 60.5833 108.553 60.7727C108.878 60.9583 109.14 61.2083 109.337 61.5227C109.537 61.8371 109.638 62.2121 109.638 62.6477C109.638 63.1098 109.518 63.5189 109.28 63.875C109.041 64.2273 108.695 64.5038 108.24 64.7045C107.789 64.9015 107.246 65 106.609 65H102.439ZM104.036 63.5795H106.609C107.03 63.5795 107.359 63.4792 107.598 63.2784C107.837 63.0777 107.956 62.8049 107.956 62.4602C107.956 62.0549 107.837 61.7367 107.598 61.5057C107.359 61.2708 107.03 61.1534 106.609 61.1534H104.036V63.5795ZM104.036 59.9091H106.075C106.393 59.9091 106.666 59.8636 106.893 59.7727C107.125 59.6818 107.301 59.553 107.422 59.3864C107.547 59.2159 107.609 59.0152 107.609 58.7841C107.609 58.447 107.471 58.1837 107.195 57.9943C106.918 57.8049 106.539 57.7102 106.058 57.7102H104.036V59.9091ZM111.501 65V56.2727H113.2V59.9318H114.018L116.899 56.2727H119.001L115.621 60.517L119.041 65H116.933L114.303 61.5114H113.2V65H111.501ZM122.901 65.1932C122.348 65.1932 121.848 65.0909 121.401 64.8864C120.954 64.678 120.599 64.3769 120.338 63.983C120.08 63.589 119.952 63.1061 119.952 62.5341C119.952 62.0417 120.046 61.6364 120.236 61.3182C120.425 61 120.681 60.7481 121.003 60.5625C121.325 60.3769 121.685 60.2367 122.082 60.142C122.48 60.0473 122.885 59.9754 123.298 59.9261C123.821 59.8655 124.245 59.8163 124.571 59.7784C124.897 59.7367 125.134 59.6705 125.281 59.5795C125.429 59.4886 125.503 59.3409 125.503 59.1364V59.0966C125.503 58.6004 125.363 58.2159 125.082 57.9432C124.806 57.6705 124.393 57.5341 123.844 57.5341C123.272 57.5341 122.821 57.661 122.491 57.9148C122.166 58.1648 121.94 58.4432 121.815 58.75L120.219 58.3864C120.408 57.8561 120.685 57.428 121.048 57.1023C121.416 56.7727 121.838 56.5341 122.315 56.3864C122.793 56.2348 123.295 56.1591 123.821 56.1591C124.17 56.1591 124.539 56.2008 124.929 56.2841C125.323 56.3636 125.69 56.5114 126.031 56.7273C126.376 56.9432 126.658 57.2519 126.878 57.6534C127.098 58.0511 127.207 58.5682 127.207 59.2045V65H125.548V63.8068H125.48C125.37 64.0265 125.205 64.2424 124.986 64.4545C124.766 64.6667 124.484 64.8428 124.139 64.983C123.795 65.1231 123.382 65.1932 122.901 65.1932ZM123.27 63.8295C123.74 63.8295 124.141 63.7367 124.474 63.5511C124.812 63.3655 125.067 63.1231 125.241 62.8239C125.42 62.5208 125.509 62.197 125.509 61.8523V60.7273C125.448 60.7879 125.33 60.8447 125.156 60.8977C124.986 60.947 124.791 60.9905 124.571 61.0284C124.351 61.0625 124.137 61.0947 123.929 61.125C123.721 61.1515 123.546 61.1742 123.406 61.1932C123.077 61.2348 122.776 61.3049 122.503 61.4034C122.234 61.5019 122.018 61.6439 121.855 61.8295C121.696 62.0114 121.616 62.2538 121.616 62.5568C121.616 62.9773 121.772 63.2955 122.082 63.5114C122.393 63.7235 122.789 63.8295 123.27 63.8295ZM133.705 68.2727V56.2727H135.364V57.6875H135.506C135.604 57.5057 135.746 57.2955 135.932 57.0568C136.117 56.8182 136.375 56.6098 136.705 56.4318C137.034 56.25 137.47 56.1591 138.011 56.1591C138.716 56.1591 139.345 56.3371 139.898 56.6932C140.451 57.0492 140.884 57.5625 141.199 58.233C141.517 58.9034 141.676 59.7102 141.676 60.6534C141.676 61.5966 141.519 62.4053 141.205 63.0795C140.89 63.75 140.458 64.267 139.909 64.6307C139.36 64.9905 138.733 65.1705 138.028 65.1705C137.498 65.1705 137.064 65.0814 136.727 64.9034C136.394 64.7254 136.133 64.517 135.943 64.2784C135.754 64.0398 135.608 63.8277 135.506 63.642H135.403V68.2727H133.705ZM135.369 60.6364C135.369 61.25 135.458 61.7879 135.636 62.25C135.814 62.7121 136.072 63.0739 136.409 63.3352C136.746 63.5928 137.159 63.7216 137.648 63.7216C138.155 63.7216 138.58 63.5871 138.92 63.3182C139.261 63.0455 139.519 62.6761 139.693 62.2102C139.871 61.7443 139.96 61.2197 139.96 60.6364C139.96 60.0606 139.873 59.5436 139.699 59.0852C139.528 58.6269 139.271 58.2652 138.926 58C138.585 57.7348 138.159 57.6023 137.648 57.6023C137.155 57.6023 136.739 57.7292 136.398 57.983C136.061 58.2367 135.805 58.5909 135.631 59.0455C135.456 59.5 135.369 60.0303 135.369 60.6364ZM146.119 65.1932C145.566 65.1932 145.066 65.0909 144.619 64.8864C144.172 64.678 143.818 64.3769 143.557 63.983C143.299 63.589 143.17 63.1061 143.17 62.5341C143.17 62.0417 143.265 61.6364 143.455 61.3182C143.644 61 143.9 60.7481 144.222 60.5625C144.544 60.3769 144.903 60.2367 145.301 60.142C145.699 60.0473 146.104 59.9754 146.517 59.9261C147.04 59.8655 147.464 59.8163 147.79 59.7784C148.116 59.7367 148.352 59.6705 148.5 59.5795C148.648 59.4886 148.722 59.3409 148.722 59.1364V59.0966C148.722 58.6004 148.581 58.2159 148.301 57.9432C148.025 57.6705 147.612 57.5341 147.062 57.5341C146.491 57.5341 146.04 57.661 145.71 57.9148C145.384 58.1648 145.159 58.4432 145.034 58.75L143.438 58.3864C143.627 57.8561 143.903 57.428 144.267 57.1023C144.634 56.7727 145.057 56.5341 145.534 56.3864C146.011 56.2348 146.513 56.1591 147.04 56.1591C147.388 56.1591 147.758 56.2008 148.148 56.2841C148.542 56.3636 148.909 56.5114 149.25 56.7273C149.595 56.9432 149.877 57.2519 150.097 57.6534C150.316 58.0511 150.426 58.5682 150.426 59.2045V65H148.767V63.8068H148.699C148.589 64.0265 148.424 64.2424 148.205 64.4545C147.985 64.6667 147.703 64.8428 147.358 64.983C147.013 65.1231 146.6 65.1932 146.119 65.1932ZM146.489 63.8295C146.958 63.8295 147.36 63.7367 147.693 63.5511C148.03 63.3655 148.286 63.1231 148.46 62.8239C148.638 62.5208 148.727 62.197 148.727 61.8523V60.7273C148.667 60.7879 148.549 60.8447 148.375 60.8977C148.205 60.947 148.009 60.9905 147.79 61.0284C147.57 61.0625 147.356 61.0947 147.148 61.125C146.939 61.1515 146.765 61.1742 146.625 61.1932C146.295 61.2348 145.994 61.3049 145.722 61.4034C145.453 61.5019 145.237 61.6439 145.074 61.8295C144.915 62.0114 144.835 62.2538 144.835 62.5568C144.835 62.9773 144.991 63.2955 145.301 63.5114C145.612 63.7235 146.008 63.8295 146.489 63.8295ZM152.172 62.6932H153.911C153.933 63.0492 154.094 63.3239 154.393 63.517C154.696 63.7102 155.089 63.8068 155.57 63.8068C156.058 63.8068 156.475 63.7027 156.82 63.4943C157.164 63.2822 157.337 62.9545 157.337 62.5114C157.337 62.2462 157.27 62.0152 157.138 61.8182C157.009 61.6174 156.825 61.4621 156.587 61.3523C156.352 61.2424 156.073 61.1875 155.751 61.1875H154.331V59.8523H155.751C156.232 59.8523 156.592 59.7424 156.831 59.5227C157.07 59.303 157.189 59.0284 157.189 58.6989C157.189 58.3428 157.06 58.0568 156.803 57.8409C156.549 57.6212 156.195 57.5114 155.74 57.5114C155.278 57.5114 154.893 57.6155 154.587 57.8239C154.28 58.0284 154.119 58.2936 154.104 58.6193H152.388C152.399 58.1307 152.547 57.7027 152.831 57.3352C153.119 56.964 153.505 56.6761 153.99 56.4716C154.479 56.2633 155.034 56.1591 155.655 56.1591C156.303 56.1591 156.863 56.2633 157.337 56.4716C157.81 56.6799 158.176 56.9678 158.433 57.3352C158.695 57.7027 158.825 58.125 158.825 58.6023C158.825 59.0833 158.681 59.4773 158.393 59.7841C158.109 60.0871 157.738 60.3049 157.28 60.4375V60.5284C157.617 60.5511 157.916 60.6534 158.178 60.8352C158.439 61.017 158.643 61.2576 158.791 61.5568C158.939 61.8561 159.013 62.1951 159.013 62.5739C159.013 63.108 158.865 63.5701 158.57 63.9602C158.278 64.3504 157.873 64.6515 157.354 64.8636C156.839 65.072 156.25 65.1761 155.587 65.1761C154.943 65.1761 154.365 65.0758 153.854 64.875C153.346 64.6705 152.943 64.3826 152.643 64.0114C152.348 63.6402 152.191 63.2008 152.172 62.6932ZM165.665 62.8977L168.483 56.2727H169.949L166.295 65H165.034L161.455 56.2727H162.903L165.665 62.8977ZM162.432 56.2727V65H160.767V56.2727H162.432ZM168.943 65V56.2727H170.597V65H168.943ZM176.622 65.1761C175.762 65.1761 175.022 64.9924 174.401 64.625C173.783 64.2538 173.306 63.733 172.969 63.0625C172.635 62.3883 172.469 61.5985 172.469 60.6932C172.469 59.7992 172.635 59.0114 172.969 58.3295C173.306 57.6477 173.776 57.1155 174.378 56.733C174.984 56.3504 175.692 56.1591 176.503 56.1591C176.995 56.1591 177.473 56.2405 177.935 56.4034C178.397 56.5663 178.812 56.822 179.179 57.1705C179.546 57.5189 179.836 57.9716 180.048 58.5284C180.26 59.0814 180.366 59.7538 180.366 60.5455V61.1477H173.429V59.875H178.702C178.702 59.428 178.611 59.0322 178.429 58.6875C178.247 58.339 177.991 58.0644 177.662 57.8636C177.336 57.6629 176.954 57.5625 176.514 57.5625C176.037 57.5625 175.62 57.6799 175.264 57.9148C174.912 58.1458 174.639 58.4489 174.446 58.8239C174.257 59.1951 174.162 59.5985 174.162 60.0341V61.0284C174.162 61.6117 174.264 62.108 174.469 62.517C174.677 62.9261 174.967 63.2386 175.338 63.4545C175.709 63.6667 176.143 63.7727 176.639 63.7727C176.961 63.7727 177.255 63.7273 177.52 63.6364C177.785 63.5417 178.014 63.4015 178.207 63.2159C178.401 63.0303 178.548 62.8011 178.651 62.5284L180.259 62.8182C180.13 63.2917 179.899 63.7064 179.565 64.0625C179.236 64.4148 178.821 64.6894 178.321 64.8864C177.825 65.0795 177.259 65.1761 176.622 65.1761ZM194.757 63.5341L194.598 67.5H192.933V65H191.848V63.5341H194.757ZM182.251 56.2727H183.916V63.5284H186.933V56.2727H188.598V63.5284H191.615V56.2727H193.28V65H182.251V56.2727ZM200.216 65.1761C199.356 65.1761 198.616 64.9924 197.994 64.625C197.377 64.2538 196.9 63.733 196.562 63.0625C196.229 62.3883 196.062 61.5985 196.062 60.6932C196.062 59.7992 196.229 59.0114 196.562 58.3295C196.9 57.6477 197.369 57.1155 197.972 56.733C198.578 56.3504 199.286 56.1591 200.097 56.1591C200.589 56.1591 201.066 56.2405 201.528 56.4034C201.991 56.5663 202.405 56.822 202.773 57.1705C203.14 57.5189 203.43 57.9716 203.642 58.5284C203.854 59.0814 203.96 59.7538 203.96 60.5455V61.1477H197.023V59.875H202.295C202.295 59.428 202.205 59.0322 202.023 58.6875C201.841 58.339 201.585 58.0644 201.256 57.8636C200.93 57.6629 200.547 57.5625 200.108 57.5625C199.631 57.5625 199.214 57.6799 198.858 57.9148C198.506 58.1458 198.233 58.4489 198.04 58.8239C197.85 59.1951 197.756 59.5985 197.756 60.0341V61.0284C197.756 61.6117 197.858 62.108 198.062 62.517C198.271 62.9261 198.561 63.2386 198.932 63.4545C199.303 63.6667 199.737 63.7727 200.233 63.7727C200.555 63.7727 200.848 63.7273 201.114 63.6364C201.379 63.5417 201.608 63.4015 201.801 63.2159C201.994 63.0303 202.142 62.8011 202.244 62.5284L203.852 62.8182C203.723 63.2917 203.492 63.7064 203.159 64.0625C202.83 64.4148 202.415 64.6894 201.915 64.8864C201.419 65.0795 200.852 65.1761 200.216 65.1761ZM211.76 59.9034V61.375H207.033V59.9034H211.76ZM207.51 56.2727V65H205.845V56.2727H207.51ZM212.947 56.2727V65H211.288V56.2727H212.947ZM217.76 65.1932C217.207 65.1932 216.707 65.0909 216.26 64.8864C215.813 64.678 215.459 64.3769 215.197 63.983C214.94 63.589 214.811 63.1061 214.811 62.5341C214.811 62.0417 214.906 61.6364 215.095 61.3182C215.285 61 215.54 60.7481 215.862 60.5625C216.184 60.3769 216.544 60.2367 216.942 60.142C217.339 60.0473 217.745 59.9754 218.158 59.9261C218.68 59.8655 219.105 59.8163 219.43 59.7784C219.756 59.7367 219.993 59.6705 220.141 59.5795C220.288 59.4886 220.362 59.3409 220.362 59.1364V59.0966C220.362 58.6004 220.222 58.2159 219.942 57.9432C219.665 57.6705 219.252 57.5341 218.703 57.5341C218.131 57.5341 217.68 57.661 217.351 57.9148C217.025 58.1648 216.8 58.4432 216.675 58.75L215.078 58.3864C215.268 57.8561 215.544 57.428 215.908 57.1023C216.275 56.7727 216.697 56.5341 217.175 56.3864C217.652 56.2348 218.154 56.1591 218.68 56.1591C219.029 56.1591 219.398 56.2008 219.788 56.2841C220.182 56.3636 220.55 56.5114 220.891 56.7273C221.235 56.9432 221.518 57.2519 221.737 57.6534C221.957 58.0511 222.067 58.5682 222.067 59.2045V65H220.408V63.8068H220.339C220.23 64.0265 220.065 64.2424 219.845 64.4545C219.625 64.6667 219.343 64.8428 218.999 64.983C218.654 65.1231 218.241 65.1932 217.76 65.1932ZM218.129 63.8295C218.599 63.8295 219 63.7367 219.334 63.5511C219.671 63.3655 219.927 63.1231 220.101 62.8239C220.279 62.5208 220.368 62.197 220.368 61.8523V60.7273C220.307 60.7879 220.19 60.8447 220.016 60.8977C219.845 60.947 219.65 60.9905 219.43 61.0284C219.211 61.0625 218.997 61.0947 218.788 61.125C218.58 61.1515 218.406 61.1742 218.266 61.1932C217.936 61.2348 217.635 61.3049 217.362 61.4034C217.093 61.5019 216.877 61.6439 216.714 61.8295C216.555 62.0114 216.476 62.2538 216.476 62.5568C216.476 62.9773 216.631 63.2955 216.942 63.5114C217.252 63.7235 217.648 63.8295 218.129 63.8295Z" fill="#343434"/>
</svg>
